<svg width="1600" height="900" viewBox="0 0 1600 900" fill="none" xmlns="http://www.w3.org/2000/svg">
  <rect width="1600" height="900" fill="#071526"/>
  <rect width="1600" height="900" fill="url(#bg)"/>
  <circle cx="1320" cy="170" r="230" fill="#2C8CFF" fill-opacity="0.18"/>
  <circle cx="240" cy="760" r="260" fill="#F7A23B" fill-opacity="0.16"/>
  <rect x="92" y="92" width="1416" height="716" rx="28" fill="#0A1B31" fill-opacity="0.86" stroke="#315E8E"/>
  <circle cx="406" cy="388" r="176" fill="#0C2745" stroke="#80B6FF" stroke-width="2"/>
  <path d="M406 212C503.202 212 582 290.798 582 388C582 485.202 503.202 564 406 564C308.798 564 230 485.202 230 388C230 290.798 308.798 212 406 212Z" stroke="#7CC0FF" stroke-width="14" stroke-dasharray="18 18"/>
  <path d="M406 212C503.202 212 582 290.798 582 388" stroke="#F7A23B" stroke-width="14" stroke-linecap="round"/>
  <path d="M248 352H564" stroke="#7CC0FF" stroke-width="4" stroke-opacity="0.45"/>
  <path d="M248 424H564" stroke="#7CC0FF" stroke-width="4" stroke-opacity="0.45"/>
  <path d="M406 230V548" stroke="#7CC0FF" stroke-width="4" stroke-opacity="0.45"/>
  <rect x="710" y="184" width="712" height="118" rx="18" fill="#102641" stroke="#3D6E9E"/>
  <rect x="710" y="330" width="712" height="118" rx="18" fill="#102641" stroke="#3D6E9E"/>
  <rect x="710" y="476" width="712" height="118" rx="18" fill="#102641" stroke="#3D6E9E"/>
  <rect x="710" y="622" width="500" height="74" rx="18" fill="#F7A23B" fill-opacity="0.12" stroke="#F7A23B"/>
  <text x="150" y="128" fill="#9CCAFF" font-family="Arial, Helvetica, sans-serif" font-size="28" font-weight="700" letter-spacing="6">EDUCATION • TRAVEL • CAREER SUPPORT</text>
  <text x="150" y="782" fill="#F5F8FF" font-family="Arial, Helvetica, sans-serif" font-size="66" font-weight="700" letter-spacing="2">GLOBAL SERVICES CONSULT</text>
  <text x="738" y="252" fill="#F5F8FF" font-family="Arial, Helvetica, sans-serif" font-size="28" font-weight="700">Making education and travel easy</text>
  <text x="738" y="397" fill="#F5F8FF" font-family="Arial, Helvetica, sans-serif" font-size="28" font-weight="700">Visa, admissions, and global mobility guidance</text>
  <text x="738" y="543" fill="#F5F8FF" font-family="Arial, Helvetica, sans-serif" font-size="28" font-weight="700">Structured service landing pages and trust content</text>
  <text x="738" y="670" fill="#FFD7A5" font-family="Arial, Helvetica, sans-serif" font-size="24" font-weight="700">Consultation-led conversion flow</text>
  <defs>
    <linearGradient id="bg" x1="106" y1="84" x2="1454" y2="812" gradientUnits="userSpaceOnUse">
      <stop stop-color="#081A30"/>
      <stop offset="1" stop-color="#113964"/>
    </linearGradient>
  </defs>
</svg>
